<?xml version="1.0" encoding="UTF-8" standalone="no"?>
<!DOCTYPE svg PUBLIC "-//W3C//DTD SVG 1.1//EN"
 "http://www.w3.org/Graphics/SVG/1.1/DTD/svg11.dtd">
<!-- Generated by graphviz version 2.47.0 (20210316.0004)
 -->
<!-- Title: dependencies Pages: 1 -->
<svg width="704pt" height="211pt"
 viewBox="0.00 0.00 704.00 211.00" xmlns="http://www.w3.org/2000/svg" xmlns:xlink="http://www.w3.org/1999/xlink">
<g id="graph0" class="graph" transform="scale(1 1) rotate(0) translate(4 207)">
<title>dependencies</title>
<polygon fill="white" stroke="transparent" points="-4,4 -4,-207 700,-207 700,4 -4,4"/>
<text text-anchor="start" x="327.01" y="-42.4" font-family="Times-12" font-weight="bold" font-size="14.00">Legend</text>
<polygon fill="#ffffb3" stroke="transparent" points="114,-10 114,-30 134,-30 134,-10 114,-10"/>
<text text-anchor="start" x="137.63" y="-15.4" font-family="Times-12" font-size="14.00"> &#160;Declarations</text>
<polygon fill="#8dd3c7" stroke="transparent" points="227,-10 227,-30 247,-30 247,-10 227,-10"/>
<text text-anchor="start" x="250.73" y="-15.4" font-family="Times-12" font-size="14.00"> &#160;Module</text>
<polygon fill="#80b1d3" stroke="transparent" points="313,-10 313,-30 333,-30 333,-10 313,-10"/>
<text text-anchor="start" x="336.78" y="-15.4" font-family="Times-12" font-size="14.00"> &#160;Bootstrap</text>
<polygon fill="#fdb462" stroke="transparent" points="410,-10 410,-30 430,-30 430,-10 410,-10"/>
<text text-anchor="start" x="433.67" y="-15.4" font-family="Times-12" font-size="14.00"> &#160;Providers</text>
<polygon fill="#fb8072" stroke="transparent" points="506,-10 506,-30 526,-30 526,-10 506,-10"/>
<text text-anchor="start" x="529.73" y="-15.4" font-family="Times-12" font-size="14.00"> &#160;Exports</text>
<g id="clust1" class="cluster">
<title>cluster_ChallengeModule</title>
<polygon fill="none" stroke="black" stroke-dasharray="1,5" points="8,-70 8,-195 688,-195 688,-70 8,-70"/>
</g>
<g id="clust2" class="cluster">
<title>cluster_ChallengeModule_declarations</title>
<polygon fill="none" stroke="black" points="318,-78 318,-130 680,-130 680,-78 318,-78"/>
</g>
<g id="clust5" class="cluster">
<title>cluster_ChallengeModule_imports</title>
<polygon fill="none" stroke="black" points="16,-78 16,-130 310,-130 310,-78 16,-78"/>
</g>
<!-- ChallengeListComponent -->
<g id="node1" class="node">
<title>ChallengeListComponent</title>
<polygon fill="#ffffb3" stroke="black" points="671.87,-122 512.13,-122 512.13,-86 671.87,-86 671.87,-122"/>
<text text-anchor="middle" x="592" y="-99.8" font-family="Times,serif" font-size="14.00">ChallengeListComponent</text>
</g>
<!-- ChallengeModule -->
<g id="node3" class="node">
<title>ChallengeModule</title>
<polygon fill="#8dd3c7" stroke="black" points="373.31,-187 370.31,-191 349.31,-191 346.31,-187 256.69,-187 256.69,-151 373.31,-151 373.31,-187"/>
<text text-anchor="middle" x="315" y="-164.8" font-family="Times,serif" font-size="14.00">ChallengeModule</text>
</g>
<!-- ChallengeListComponent&#45;&gt;ChallengeModule -->
<g id="edge1" class="edge">
<title>ChallengeListComponent&#45;&gt;ChallengeModule</title>
<path fill="none" stroke="black" d="M592,-122.11C592,-141.34 592,-169 592,-169 592,-169 383.41,-169 383.41,-169"/>
<polygon fill="black" stroke="black" points="383.41,-165.5 373.41,-169 383.41,-172.5 383.41,-165.5"/>
</g>
<!-- OperationFormComponent -->
<g id="node2" class="node">
<title>OperationFormComponent</title>
<polygon fill="#ffffb3" stroke="black" points="493.64,-122 326.36,-122 326.36,-86 493.64,-86 493.64,-122"/>
<text text-anchor="middle" x="410" y="-99.8" font-family="Times,serif" font-size="14.00">OperationFormComponent</text>
</g>
<!-- OperationFormComponent&#45;&gt;ChallengeModule -->
<g id="edge2" class="edge">
<title>OperationFormComponent&#45;&gt;ChallengeModule</title>
<path fill="none" stroke="black" d="M349.67,-122.11C349.67,-122.11 349.67,-140.99 349.67,-140.99"/>
<polygon fill="black" stroke="black" points="346.17,-140.99 349.67,-150.99 353.17,-140.99 346.17,-140.99"/>
</g>
<!-- ChallengeRoutingModule -->
<g id="node4" class="node">
<title>ChallengeRoutingModule</title>
<polygon fill="#8dd3c7" stroke="black" points="301.93,-122 298.93,-126 277.93,-126 274.93,-122 140.07,-122 140.07,-86 301.93,-86 301.93,-122"/>
<text text-anchor="middle" x="221" y="-99.8" font-family="Times,serif" font-size="14.00">ChallengeRoutingModule</text>
</g>
<!-- ChallengeRoutingModule&#45;&gt;ChallengeModule -->
<g id="edge3" class="edge">
<title>ChallengeRoutingModule&#45;&gt;ChallengeModule</title>
<path fill="none" stroke="black" d="M279.28,-122.11C279.28,-122.11 279.28,-140.99 279.28,-140.99"/>
<polygon fill="black" stroke="black" points="275.78,-140.99 279.28,-150.99 282.78,-140.99 275.78,-140.99"/>
</g>
<!-- SharedModule -->
<g id="node5" class="node">
<title>SharedModule</title>
<polygon fill="#8dd3c7" stroke="black" points="122.42,-122 119.42,-126 98.42,-126 95.42,-122 23.58,-122 23.58,-86 122.42,-86 122.42,-122"/>
<text text-anchor="middle" x="73" y="-99.8" font-family="Times,serif" font-size="14.00">SharedModule</text>
</g>
<!-- SharedModule&#45;&gt;ChallengeModule -->
<g id="edge4" class="edge">
<title>SharedModule&#45;&gt;ChallengeModule</title>
<path fill="none" stroke="black" d="M73,-122.11C73,-141.34 73,-169 73,-169 73,-169 246.73,-169 246.73,-169"/>
<polygon fill="black" stroke="black" points="246.73,-172.5 256.73,-169 246.73,-165.5 246.73,-172.5"/>
</g>
</g>
</svg>
